<svg xmlns="http://www.w3.org/2000/svg" xmlns:xlink="http://www.w3.org/1999/xlink" xmlns:serif="http://www.serif.com/" viewBox="0 0 32 32" version="1.1" xml:space="preserve" style="" x="0px" y="0px" fill-rule="evenodd" clip-rule="evenodd" stroke-linejoin="round" stroke-miterlimit="2"><path d="M21.793,5.523l4.684,4.684c-0.558,0.123 -1.138,0.164 -1.72,0.116c0,-0 -8.68,-0.724 -8.68,-0.724c-1.759,-0.146 -3.493,0.489 -4.741,1.737c-1.248,1.248 -1.883,2.982 -1.737,4.741l0.234,2.806l2.021,0.168l-0.258,-3.093l4.441,4.441c-0.065,-0.003 -0.13,-0.007 -0.195,-0.012c-0.001,-0 -8.433,-0.703 -8.433,-0.703c-2.269,-0.189 -4.506,0.63 -6.116,2.24c-0.39,0.391 -0.39,1.024 -0,1.415c0.39,0.39 1.024,0.39 1.414,-0c0.26,-0.26 0.541,-0.492 0.84,-0.694l5.808,5.808c-0.202,0.299 -0.434,0.58 -0.694,0.84c-0.39,0.39 -0.39,1.024 0,1.414c0.391,0.39 1.024,0.39 1.415,0c1.61,-1.61 2.429,-3.847 2.24,-6.116l-0.125,-1.498l-2.021,-0.168l0.153,1.832c0.048,0.582 0.007,1.162 -0.116,1.72l-4.684,-4.684c0.558,-0.123 1.138,-0.164 1.72,-0.116c2.328,0.194 5.587,0.466 8.432,0.703c1.821,0.152 3.616,-0.506 4.907,-1.798c1.292,-1.291 1.95,-3.086 1.798,-4.907l-0.213,-2.558l-2.021,-0.168l0.241,2.892c0.005,0.066 0.009,0.131 0.012,0.196l-4.441,-4.441l8.633,0.72c2.269,0.189 4.506,-0.63 6.116,-2.24c0.39,-0.391 0.39,-1.024 0,-1.415c-0.39,-0.39 -1.024,-0.39 -1.414,0c-0.26,0.26 -0.541,0.492 -0.84,0.694l-5.808,-5.808c0.202,-0.299 0.434,-0.58 0.694,-0.84c0.39,-0.39 0.39,-1.024 -0,-1.414c-0.391,-0.39 -1.024,-0.39 -1.415,-0c-1.61,1.61 -2.429,3.847 -2.24,6.116l0.125,1.498l2.021,0.168l-0.153,-1.832c-0.048,-0.582 -0.007,-1.162 0.116,-1.72Zm-8.17,6.567c-0.317,0.177 -0.611,0.398 -0.873,0.66c-0.262,0.262 -0.483,0.556 -0.66,0.873l6.211,6.211c0.314,-0.181 0.606,-0.404 0.867,-0.666c0.262,-0.261 0.485,-0.553 0.666,-0.867l-6.211,-6.211Z"/></svg>
